<svg id="Tick_" data-name="Tick " xmlns="http://www.w3.org/2000/svg" xmlns:xlink="http://www.w3.org/1999/xlink" width="50" height="45.047" viewBox="0 0 50 45.047">
  <defs>
    <clipPath id="clip-path">
      <rect id="Rectangle_635" data-name="Rectangle 635" width="50" height="45.047" fill="none"/>
    </clipPath>
  </defs>
  <g id="Group_1008" data-name="Group 1008" clip-path="url(#clip-path)">
    <path id="Path_1668" data-name="Path 1668" d="M36.111,51.472a21,21,0,0,1,2.152,5.351A18.988,18.988,0,0,1,34.627,73.4a18.615,18.615,0,0,1-12.207,7.144,18.871,18.871,0,0,1-15.248-4.1A18.5,18.5,0,0,1,.255,64.484,18.835,18.835,0,0,1,4.8,48.657a18.7,18.7,0,0,1,11.668-6.408,19.071,19.071,0,0,1,14.711,3.746c.119.089.245.167.368.251.031.314-.227.454-.4.625-1.768,1.7-3.442,3.5-5.081,5.325q-3.038,3.38-5.831,6.97c-.682.872-.6.869-1.517.223-3.093-2.168-6.2-4.316-9.291-6.485-.62-.435-.64-.432-1.164.088-.752.748-1.485,1.515-2.259,2.239-.365.341-.356.588-.067.983C9.756,61.436,13.517,66.7,17.1,72.093q1.172,1.766,2.263,3.584c.251.42.282.415.524,0,2.954-5.1,6.127-10.069,9.427-14.955q3-4.437,6.207-8.727c.155-.208.246-.521.6-.52" transform="translate(0 -35.752)" fill="#abca9e"/>
    <path id="Path_1669" data-name="Path 1669" d="M67.74,15.72c-2.106,2.694-4.061,5.5-5.992,8.315-3.6,5.259-7.029,10.628-10.231,16.138-.074.128-.157.251-.265.422-.637-1.018-1.24-2.016-1.874-2.993-3.788-5.828-7.836-11.476-11.95-17.076-.364-.5-.354-.75.1-1.155.856-.771,1.673-1.589,2.459-2.431.337-.361.551-.322.92-.062,3.253,2.29,6.526,4.551,9.776,6.845.41.289.593.252.9-.14a127.514,127.514,0,0,1,11.543-13,.5.5,0,0,0,.06-.092c2.18-2.051,4.37-4.092,6.694-5.983A65.257,65.257,0,0,1,75.65.231,1.073,1.073,0,0,1,76.259,0c1.785.011,3.571.006,5.37.006,0,.244-.2.312-.328.424A107.826,107.826,0,0,0,67.79,15.622a.625.625,0,0,0-.051.1" transform="translate(-31.629 0)" fill="#519136"/>
  </g>
</svg>
